<mxfile host="app.diagrams.net" agent="Mozilla/5.0 (Windows NT 10.0; Win64; x64) AppleWebKit/537.36 (KHTML, like Gecko) Chrome/126.0.0.0 YaBrowser/24.7.0.0 Safari/537.36" version="24.7.8">
  <diagram name="Страница — 1" id="RlMpRVSPrJKGn-UZE4Oz">
    <mxGraphModel dx="1621" dy="1626" grid="1" gridSize="10" guides="1" tooltips="1" connect="1" arrows="1" fold="1" page="1" pageScale="1" pageWidth="827" pageHeight="1169" math="0" shadow="0">
      <root>
        <mxCell id="0" />
        <mxCell id="1" parent="0" />
        <mxCell id="dkSiAGbx6wWZ13WZBz_K-51" style="edgeStyle=orthogonalEdgeStyle;rounded=0;orthogonalLoop=1;jettySize=auto;html=1;entryX=0.5;entryY=0;entryDx=0;entryDy=0;" edge="1" parent="1" source="dkSiAGbx6wWZ13WZBz_K-4" target="dkSiAGbx6wWZ13WZBz_K-11">
          <mxGeometry relative="1" as="geometry" />
        </mxCell>
        <mxCell id="dkSiAGbx6wWZ13WZBz_K-4" value="Сделано" style="ellipse;whiteSpace=wrap;html=1;" vertex="1" parent="1">
          <mxGeometry x="-480" y="260" width="140" height="100" as="geometry" />
        </mxCell>
        <mxCell id="dkSiAGbx6wWZ13WZBz_K-10" value="Захощен бот и фронтенд" style="shape=step;perimeter=stepPerimeter;whiteSpace=wrap;html=1;fixedSize=1;" vertex="1" parent="1">
          <mxGeometry x="-230" y="460" width="140" height="90" as="geometry" />
        </mxCell>
        <mxCell id="dkSiAGbx6wWZ13WZBz_K-18" value="" style="edgeStyle=orthogonalEdgeStyle;rounded=0;orthogonalLoop=1;jettySize=auto;html=1;" edge="1" parent="1" source="dkSiAGbx6wWZ13WZBz_K-11" target="dkSiAGbx6wWZ13WZBz_K-10">
          <mxGeometry relative="1" as="geometry" />
        </mxCell>
        <mxCell id="dkSiAGbx6wWZ13WZBz_K-11" value="Реализована рабочая версия продукта (mvp++)" style="shape=parallelogram;perimeter=parallelogramPerimeter;whiteSpace=wrap;html=1;fixedSize=1;" vertex="1" parent="1">
          <mxGeometry x="-720" y="420" width="200" height="100" as="geometry" />
        </mxCell>
        <mxCell id="dkSiAGbx6wWZ13WZBz_K-16" value="Доработать ui для админа , также с заказчиком внести последние корретивы в существующий UI" style="shape=dataStorage;whiteSpace=wrap;html=1;fixedSize=1;" vertex="1" parent="1">
          <mxGeometry x="-620" y="790" width="180" height="110" as="geometry" />
        </mxCell>
        <mxCell id="dkSiAGbx6wWZ13WZBz_K-17" value="Доработать логику на бекенде&amp;nbsp;" style="shape=dataStorage;whiteSpace=wrap;html=1;fixedSize=1;" vertex="1" parent="1">
          <mxGeometry x="-368" y="770" width="150" height="110" as="geometry" />
        </mxCell>
        <mxCell id="dkSiAGbx6wWZ13WZBz_K-40" style="edgeStyle=orthogonalEdgeStyle;rounded=0;orthogonalLoop=1;jettySize=auto;html=1;" edge="1" parent="1" source="dkSiAGbx6wWZ13WZBz_K-19" target="dkSiAGbx6wWZ13WZBz_K-16">
          <mxGeometry relative="1" as="geometry" />
        </mxCell>
        <mxCell id="dkSiAGbx6wWZ13WZBz_K-41" style="edgeStyle=orthogonalEdgeStyle;rounded=0;orthogonalLoop=1;jettySize=auto;html=1;entryX=0.75;entryY=0;entryDx=0;entryDy=0;" edge="1" parent="1" source="dkSiAGbx6wWZ13WZBz_K-19" target="dkSiAGbx6wWZ13WZBz_K-17">
          <mxGeometry relative="1" as="geometry" />
        </mxCell>
        <mxCell id="dkSiAGbx6wWZ13WZBz_K-19" value="Доработки" style="shape=cylinder3;whiteSpace=wrap;html=1;boundedLbl=1;backgroundOutline=1;size=15;" vertex="1" parent="1">
          <mxGeometry x="-505" y="550" width="130" height="110" as="geometry" />
        </mxCell>
        <mxCell id="dkSiAGbx6wWZ13WZBz_K-26" style="edgeStyle=orthogonalEdgeStyle;rounded=0;orthogonalLoop=1;jettySize=auto;html=1;exitX=0;exitY=0.5;exitDx=0;exitDy=0;" edge="1" parent="1" source="dkSiAGbx6wWZ13WZBz_K-21" target="dkSiAGbx6wWZ13WZBz_K-22">
          <mxGeometry relative="1" as="geometry" />
        </mxCell>
        <mxCell id="dkSiAGbx6wWZ13WZBz_K-21" value="Найти решение и постараться его реализовать&amp;nbsp;" style="rhombus;whiteSpace=wrap;html=1;" vertex="1" parent="1">
          <mxGeometry x="-630" y="-750" width="280" height="100" as="geometry" />
        </mxCell>
        <mxCell id="dkSiAGbx6wWZ13WZBz_K-34" value="" style="edgeStyle=orthogonalEdgeStyle;rounded=0;orthogonalLoop=1;jettySize=auto;html=1;entryX=0.003;entryY=0.431;entryDx=0;entryDy=0;entryPerimeter=0;" edge="1" parent="1" source="dkSiAGbx6wWZ13WZBz_K-22" target="dkSiAGbx6wWZ13WZBz_K-23">
          <mxGeometry relative="1" as="geometry">
            <mxPoint x="-400" y="-475" as="targetPoint" />
          </mxGeometry>
        </mxCell>
        <mxCell id="dkSiAGbx6wWZ13WZBz_K-22" value="Исправить логику работы бота , а именно дублирование ответных сообщений&amp;nbsp;" style="shape=hexagon;perimeter=hexagonPerimeter2;whiteSpace=wrap;html=1;fixedSize=1;" vertex="1" parent="1">
          <mxGeometry x="-680" y="-530" width="160" height="110" as="geometry" />
        </mxCell>
        <mxCell id="dkSiAGbx6wWZ13WZBz_K-36" value="" style="edgeStyle=orthogonalEdgeStyle;rounded=0;orthogonalLoop=1;jettySize=auto;html=1;" edge="1" parent="1" source="dkSiAGbx6wWZ13WZBz_K-23" target="dkSiAGbx6wWZ13WZBz_K-35">
          <mxGeometry relative="1" as="geometry">
            <Array as="points">
              <mxPoint x="-210" y="-490" />
              <mxPoint x="-210" y="-690" />
            </Array>
          </mxGeometry>
        </mxCell>
        <mxCell id="dkSiAGbx6wWZ13WZBz_K-23" value="Захостить базу данных" style="shape=hexagon;perimeter=hexagonPerimeter2;whiteSpace=wrap;html=1;fixedSize=1;" vertex="1" parent="1">
          <mxGeometry x="-423.5" y="-550" width="163.5" height="120" as="geometry" />
        </mxCell>
        <mxCell id="dkSiAGbx6wWZ13WZBz_K-39" style="edgeStyle=orthogonalEdgeStyle;rounded=0;orthogonalLoop=1;jettySize=auto;html=1;entryX=0.5;entryY=0;entryDx=0;entryDy=0;" edge="1" parent="1" source="dkSiAGbx6wWZ13WZBz_K-32" target="dkSiAGbx6wWZ13WZBz_K-38">
          <mxGeometry relative="1" as="geometry" />
        </mxCell>
        <mxCell id="dkSiAGbx6wWZ13WZBz_K-32" value="Захостить бекенд на fastify или что то вроде этого с помощью docker контейнера , чисто запускать контейнеризированное приложение в облаке" style="shape=hexagon;perimeter=hexagonPerimeter2;whiteSpace=wrap;html=1;fixedSize=1;" vertex="1" parent="1">
          <mxGeometry x="-215" y="-760" width="240" height="140" as="geometry" />
        </mxCell>
        <mxCell id="dkSiAGbx6wWZ13WZBz_K-35" value="" style="shape=waypoint;sketch=0;size=6;pointerEvents=1;points=[];fillColor=default;resizable=0;rotatable=0;perimeter=centerPerimeter;snapToPoint=1;" vertex="1" parent="1">
          <mxGeometry x="-230" y="-700" width="20" height="20" as="geometry" />
        </mxCell>
        <mxCell id="dkSiAGbx6wWZ13WZBz_K-38" value="Начать доделывать ui , если все успею быстро сделать" style="shape=hexagon;perimeter=hexagonPerimeter2;whiteSpace=wrap;html=1;fixedSize=1;" vertex="1" parent="1">
          <mxGeometry x="-180" y="-560" width="180" height="120" as="geometry" />
        </mxCell>
        <mxCell id="dkSiAGbx6wWZ13WZBz_K-42" value="Общая сборка проверка фукнционала со стороны серверной части и прочих мало заметных элементов" style="shape=hexagon;perimeter=hexagonPerimeter2;whiteSpace=wrap;html=1;fixedSize=1;" vertex="1" parent="1">
          <mxGeometry x="-450" y="-370" width="190" height="130" as="geometry" />
        </mxCell>
        <mxCell id="dkSiAGbx6wWZ13WZBz_K-49" style="edgeStyle=orthogonalEdgeStyle;rounded=0;orthogonalLoop=1;jettySize=auto;html=1;entryX=1;entryY=0.5;entryDx=0;entryDy=0;" edge="1" parent="1" source="dkSiAGbx6wWZ13WZBz_K-43" target="dkSiAGbx6wWZ13WZBz_K-42">
          <mxGeometry relative="1" as="geometry" />
        </mxCell>
        <mxCell id="dkSiAGbx6wWZ13WZBz_K-43" value="Доработка бекенда , дописывание логики доведение до ума" style="shape=hexagon;perimeter=hexagonPerimeter2;whiteSpace=wrap;html=1;fixedSize=1;" vertex="1" parent="1">
          <mxGeometry x="-195" y="-380" width="200" height="140" as="geometry" />
        </mxCell>
        <mxCell id="dkSiAGbx6wWZ13WZBz_K-48" style="edgeStyle=orthogonalEdgeStyle;rounded=0;orthogonalLoop=1;jettySize=auto;html=1;entryX=0.5;entryY=0;entryDx=0;entryDy=0;" edge="1" parent="1" source="dkSiAGbx6wWZ13WZBz_K-45" target="dkSiAGbx6wWZ13WZBz_K-46">
          <mxGeometry relative="1" as="geometry" />
        </mxCell>
        <mxCell id="dkSiAGbx6wWZ13WZBz_K-45" value="Тестирование продукта в различных условиях , в приближенных к реальности" style="shape=cylinder3;whiteSpace=wrap;html=1;boundedLbl=1;backgroundOutline=1;size=15;" vertex="1" parent="1">
          <mxGeometry x="-680" y="-380" width="170" height="140" as="geometry" />
        </mxCell>
        <mxCell id="dkSiAGbx6wWZ13WZBz_K-46" value="ВелоКвест" style="ellipse;whiteSpace=wrap;html=1;aspect=fixed;" vertex="1" parent="1">
          <mxGeometry x="-690" y="-95" width="160" height="160" as="geometry" />
        </mxCell>
        <mxCell id="dkSiAGbx6wWZ13WZBz_K-47" style="edgeStyle=orthogonalEdgeStyle;rounded=0;orthogonalLoop=1;jettySize=auto;html=1;entryX=1;entryY=0.5;entryDx=0;entryDy=0;entryPerimeter=0;" edge="1" parent="1" source="dkSiAGbx6wWZ13WZBz_K-42" target="dkSiAGbx6wWZ13WZBz_K-45">
          <mxGeometry relative="1" as="geometry" />
        </mxCell>
        <mxCell id="dkSiAGbx6wWZ13WZBz_K-50" style="edgeStyle=orthogonalEdgeStyle;rounded=0;orthogonalLoop=1;jettySize=auto;html=1;entryX=0.537;entryY=0.017;entryDx=0;entryDy=0;entryPerimeter=0;" edge="1" parent="1" source="dkSiAGbx6wWZ13WZBz_K-38" target="dkSiAGbx6wWZ13WZBz_K-43">
          <mxGeometry relative="1" as="geometry" />
        </mxCell>
        <mxCell id="dkSiAGbx6wWZ13WZBz_K-52" value="2 часа" style="triangle;whiteSpace=wrap;html=1;" vertex="1" parent="1">
          <mxGeometry x="-710" y="-560" width="40" height="50" as="geometry" />
        </mxCell>
        <mxCell id="dkSiAGbx6wWZ13WZBz_K-53" value="3 часа" style="triangle;whiteSpace=wrap;html=1;" vertex="1" parent="1">
          <mxGeometry x="-453" y="-580" width="40" height="50" as="geometry" />
        </mxCell>
        <mxCell id="dkSiAGbx6wWZ13WZBz_K-54" value="5 часов" style="triangle;whiteSpace=wrap;html=1;" vertex="1" parent="1">
          <mxGeometry x="-240" y="-810" width="40" height="50" as="geometry" />
        </mxCell>
        <mxCell id="dkSiAGbx6wWZ13WZBz_K-55" value="4 часа" style="triangle;whiteSpace=wrap;html=1;" vertex="1" parent="1">
          <mxGeometry x="-180" y="-600" width="40" height="50" as="geometry" />
        </mxCell>
        <mxCell id="dkSiAGbx6wWZ13WZBz_K-56" value="7 часов" style="triangle;whiteSpace=wrap;html=1;" vertex="1" parent="1">
          <mxGeometry x="-195" y="-420" width="40" height="50" as="geometry" />
        </mxCell>
        <mxCell id="dkSiAGbx6wWZ13WZBz_K-57" value="4 часа" style="triangle;whiteSpace=wrap;html=1;" vertex="1" parent="1">
          <mxGeometry x="-453" y="-410" width="40" height="50" as="geometry" />
        </mxCell>
        <mxCell id="dkSiAGbx6wWZ13WZBz_K-58" value="2 часа" style="triangle;whiteSpace=wrap;html=1;" vertex="1" parent="1">
          <mxGeometry x="-700" y="-410" width="37" height="50" as="geometry" />
        </mxCell>
        <mxCell id="dkSiAGbx6wWZ13WZBz_K-59" value="&lt;font face=&quot;Comic Sans MS&quot; style=&quot;font-size: 20px;&quot;&gt;&lt;b&gt;Итого 27 часов для окончания проекта&lt;/b&gt;&lt;/font&gt;" style="ellipse;shape=cloud;whiteSpace=wrap;html=1;" vertex="1" parent="1">
          <mxGeometry x="-375" y="-240" width="195" height="150" as="geometry" />
        </mxCell>
        <mxCell id="dkSiAGbx6wWZ13WZBz_K-61" value="&lt;font style=&quot;font-size: 20px;&quot; face=&quot;Comic Sans MS&quot;&gt;То есть 7 суток работы (средней интенсивности)&lt;/font&gt;" style="ellipse;shape=cloud;whiteSpace=wrap;html=1;" vertex="1" parent="1">
          <mxGeometry x="-440" y="-90" width="260" height="210" as="geometry" />
        </mxCell>
        <mxCell id="dkSiAGbx6wWZ13WZBz_K-62" value="&lt;font style=&quot;font-size: 20px;&quot;&gt;Всего дней до велоквеста : 13&lt;/font&gt;" style="ellipse;shape=cloud;whiteSpace=wrap;html=1;" vertex="1" parent="1">
          <mxGeometry x="-170" y="-210" width="180" height="110" as="geometry" />
        </mxCell>
        <mxCell id="dkSiAGbx6wWZ13WZBz_K-63" value="&lt;font style=&quot;font-size: 20px;&quot;&gt;Закладываем риски 2 дня&lt;/font&gt;" style="ellipse;shape=cloud;whiteSpace=wrap;html=1;" vertex="1" parent="1">
          <mxGeometry x="-155" y="-90" width="185" height="170" as="geometry" />
        </mxCell>
        <mxCell id="dkSiAGbx6wWZ13WZBz_K-64" value="&lt;font style=&quot;font-size: 25px;&quot;&gt;Итого 9 дней для выполнения задач&lt;/font&gt;" style="ellipse;shape=cloud;whiteSpace=wrap;html=1;" vertex="1" parent="1">
          <mxGeometry x="-250" y="110" width="250" height="180" as="geometry" />
        </mxCell>
        <mxCell id="dkSiAGbx6wWZ13WZBz_K-65" value="" style="endArrow=none;html=1;rounded=0;" edge="1" parent="1">
          <mxGeometry width="50" height="50" relative="1" as="geometry">
            <mxPoint x="-720" y="100" as="sourcePoint" />
            <mxPoint x="-150" y="340" as="targetPoint" />
            <Array as="points">
              <mxPoint x="-150" y="340" />
              <mxPoint x="80" y="340" />
            </Array>
          </mxGeometry>
        </mxCell>
      </root>
    </mxGraphModel>
  </diagram>
</mxfile>
